<?xml version="1.0" standalone="no"?>
<!DOCTYPE svg PUBLIC "-//W3C//DTD SVG 20010904//EN"
 "http://www.w3.org/TR/2001/REC-SVG-20010904/DTD/svg10.dtd">
<svg version="1.0" xmlns="http://www.w3.org/2000/svg"
 width="357.000000pt" height="124.000000pt" viewBox="0 0 357.000000 124.000000"
 preserveAspectRatio="xMidYMid meet">

<g transform="translate(0.000000,124.000000) scale(0.100000,-0.100000)"
fill="#000000" stroke="none">
<path d="M0 620 l0 -620 1785 0 1785 0 0 620 0 620 -1785 0 -1785 0 0 -620z
m2350 330 l0 -50 -60 0 -60 0 0 50 0 50 60 0 60 0 0 -50z m-1489 -47 c124 -56
192 -189 167 -323 -14 -75 -39 -120 -95 -170 l-48 -42 -5 159 c-4 129 -8 164
-23 186 -35 54 -60 62 -204 65 -121 4 -137 2 -179 -19 -106 -51 -106 -202 -1
-252 25 -12 62 -17 134 -17 94 0 102 -2 144 -30 24 -17 62 -45 83 -64 l39 -33
-39 -14 c-27 -10 -88 -14 -199 -14 -183 0 -218 10 -297 83 -125 116 -131 293
-14 418 77 83 118 95 326 92 144 -3 171 -6 211 -25z m596 -81 c38 -27 43 -27
43 -2 0 18 7 20 55 20 l55 0 0 -270 0 -270 -55 0 -55 0 0 90 c0 81 -9 112 -23
77 -8 -22 -71 -47 -116 -47 -53 0 -113 30 -146 74 -25 33 -48 124 -40 163 2
10 7 35 10 55 18 111 179 176 272 110z m1764 0 c146 -76 155 -278 17 -370 -37
-24 -51 -27 -128 -27 -77 0 -91 3 -128 27 -62 41 -97 109 -96 183 1 68 17 105
66 152 70 68 180 82 269 35z m-1379 -121 c3 -120 6 -142 22 -160 24 -27 76
-28 107 -2 23 18 24 26 27 160 l4 141 54 0 54 0 0 -205 0 -205 -55 0 c-52 0
-55 1 -55 25 0 32 -7 31 -43 -2 -25 -25 -36 -28 -92 -28 -60 0 -67 3 -97 33
l-33 32 -3 175 -3 175 55 0 54 0 4 -139z m508 -66 l0 -205 -60 0 -60 0 0 205
0 205 60 0 60 0 0 -205z m470 170 c0 -30 -14 -51 -110 -157 -60 -67 -110 -125
-110 -130 0 -4 50 -8 110 -8 l110 0 0 -40 0 -40 -185 0 -185 0 0 35 c0 30 14
50 111 157 l112 123 -107 3 -106 3 0 44 0 45 180 0 180 0 0 -35z"/>
<path d="M1364 753 c-36 -7 -66 -48 -71 -97 -14 -118 89 -189 168 -118 53 48
51 161 -3 196 -27 18 -65 25 -94 19z"/>
<path d="M3034 727 c-34 -30 -45 -108 -20 -155 48 -93 178 -75 206 29 9 33 8
47 -9 83 -23 53 -44 66 -105 66 -32 0 -52 -6 -72 -23z"/>
</g>
</svg>
